<?xml version="1.0" encoding="UTF-8"?>
<svg version="1.1" xmlns="http://www.w3.org/2000/svg" width="128" height="128">
<path d="M0 0 C8.73238078 4.94215593 14.39973222 18.37447681 17.5 27.5 C22.13320264 45.74452238 19.55461971 64.87800444 10 81 C8.36976158 83.14168577 6.72047308 85.19595229 4.90625 87.18359375 C3.72077604 89.02796026 3.72077604 89.02796026 4.72607422 91.22924805 C6.1463787 94.31836946 7.76457015 97.21059613 9.4765625 100.1484375 C10.15436067 101.3303195 10.8314216 102.51262456 11.5078125 103.6953125 C12.56520956 105.53814842 13.62674249 107.37797268 14.70117188 109.2109375 C15.74440927 110.99496916 16.76798955 112.78915115 17.7890625 114.5859375 C18.71259521 116.17994385 18.71259521 116.17994385 19.65478516 117.80615234 C21.18783529 121.44596393 21.09959453 124.09043576 21 128 C7.54374159 128.06951274 -5.9124741 128.12281791 -19.3688755 128.15543652 C-25.61723803 128.17109186 -31.86547771 128.19232808 -38.11376953 128.22631836 C-44.14379458 128.25891598 -50.17370147 128.276854 -56.20380783 128.28463173 C-58.50430537 128.29017447 -60.80479645 128.30099803 -63.10524368 128.31719017 C-66.32762882 128.33896935 -69.54952575 128.34196666 -72.77197266 128.34057617 C-73.72287781 128.351362 -74.67378296 128.36214783 -75.65350342 128.3732605 C-83.1652393 128.33819014 -88.52673703 126.33292289 -94 121 C-98.61930327 113.94742993 -100.1547097 108.60651594 -100.11352539 100.20214844 C-100.11367142 99.42127869 -100.11381744 98.64040894 -100.1139679 97.83587646 C-100.11327242 95.26034751 -100.10549712 92.68489129 -100.09765625 90.109375 C-100.09579077 88.32147257 -100.09436748 86.53356963 -100.09336853 84.7456665 C-100.08955357 80.04389022 -100.07973198 75.34214492 -100.06866455 70.64038086 C-100.05842849 65.84098734 -100.0538662 61.0415888 -100.04882812 56.2421875 C-100.03810881 46.8281114 -100.02104463 37.41405828 -100 28 C-100.969375 28.020625 -101.93875 28.04125 -102.9375 28.0625 C-106 28 -106 28 -107 27 C-107.1875 24.0625 -107.1875 24.0625 -107 21 C-104.11207701 18.11207701 -101.75073157 18.70885172 -97.79882812 18.67773438 C-96.85458984 18.68095703 -95.91035156 18.68417969 -94.9375 18.6875 C-94.02033203 18.67138672 -93.10316406 18.65527344 -92.15820312 18.63867188 C-84.2948867 18.63309901 -76.72672409 19.74314595 -70.6875 25.1875 C-69.76517578 25.98220703 -69.76517578 25.98220703 -68.82421875 26.79296875 C-63.8945205 32.7571647 -62.34273697 38.9179063 -61.75 46.5 C-61.67265625 47.32242188 -61.5953125 48.14484375 -61.515625 48.9921875 C-61.32945515 50.99351337 -61.16266705 52.99662687 -61 55 C-60.32427948 54.31095581 -59.64855896 53.62191162 -58.95236206 52.9119873 C-52.58320246 46.42121173 -46.19826868 39.94632696 -39.79754448 33.48667145 C-36.50732906 30.16514015 -33.22292762 26.838259 -29.95117188 23.49853516 C-26.79366823 20.27585145 -23.62174146 17.06803735 -20.43927383 13.87001038 C-19.22755694 12.64720497 -18.02113476 11.41912937 -16.8201561 10.18577576 C-15.13713809 8.45921506 -13.43627756 6.75234293 -11.72998047 5.04882812 C-10.99090202 4.2773922 -10.99090202 4.2773922 -10.2368927 3.4903717 C-6.85898906 0.1716174 -4.69600976 -0.64818441 0 0 Z " fill="#A7DDFA" transform="translate(107,0)"/>
<path d="M0 0 C0.94423828 0.00322266 1.88847656 0.00644531 2.86132812 0.00976562 C3.77849609 -0.00634766 4.69566406 -0.02246094 5.640625 -0.0390625 C13.50394143 -0.04463537 21.07210403 1.06541157 27.11132812 6.50976562 C27.72621094 7.03957031 28.34109375 7.569375 28.97460938 8.11523438 C33.93238128 14.11339525 35.45242235 20.19324169 36.04882812 27.82226562 C36.12617187 28.6446875 36.20351563 29.46710937 36.28320312 30.31445312 C36.46937297 32.315779 36.63616108 34.3188925 36.79882812 36.32226562 C37.30857178 35.80728516 37.81831543 35.29230469 38.34350586 34.76171875 C40.63853461 32.44599519 42.93736981 30.13408782 45.23632812 27.82226562 C46.03876953 27.01144531 46.84121094 26.200625 47.66796875 25.36523438 C48.43173828 24.59824219 49.19550781 23.83125 49.98242188 23.04101562 C51.0428772 21.97270508 51.0428772 21.97270508 52.12475586 20.8828125 C53.79882812 19.32226562 53.79882812 19.32226562 54.79882812 19.32226562 C54.79882812 49.02226563 54.79882812 78.72226563 54.79882812 109.32226562 C10.98303865 109.32226562 10.98303865 109.32226562 3.79882812 102.32226562 C-0.82047515 95.26969556 -2.35588157 89.92878157 -2.31469727 81.52441406 C-2.31484329 80.74354431 -2.31498932 79.96267456 -2.31513977 79.15814209 C-2.3144443 76.58261313 -2.30666899 74.00715691 -2.29882812 71.43164062 C-2.29696265 69.64373819 -2.29553936 67.85583525 -2.29454041 66.06793213 C-2.29072544 61.36615585 -2.28090386 56.66441054 -2.26983643 51.96264648 C-2.25960037 47.16325296 -2.25503808 42.36385442 -2.25 37.56445312 C-2.23928069 28.15037703 -2.2222165 18.7363239 -2.20117188 9.32226562 C-3.65523438 9.35320313 -3.65523438 9.35320313 -5.13867188 9.38476562 C-8.20117187 9.32226562 -8.20117187 9.32226562 -9.20117188 8.32226562 C-9.38867188 5.38476562 -9.38867188 5.38476562 -9.20117188 2.32226562 C-6.31324889 -0.56565736 -3.95190344 0.03111735 0 0 Z " fill="#CCEAFB" transform="translate(9.201171875,18.677734375)"/>
<path d="M0 0 C0.9796875 0.00515625 1.959375 0.0103125 2.96875 0.015625 C3.9484375 0.01046875 4.928125 0.0053125 5.9375 0 C8.46875 0.265625 8.46875 0.265625 10.46875 2.265625 C10.71875 4.765625 10.71875 4.765625 10.46875 7.265625 C8.46875 9.265625 8.46875 9.265625 5.68359375 9.49609375 C4.60207031 9.48191406 3.52054688 9.46773437 2.40625 9.453125 C0.78009766 9.44345703 0.78009766 9.44345703 -0.87890625 9.43359375 C-3.53125 9.265625 -3.53125 9.265625 -4.53125 8.265625 C-4.71875 5.328125 -4.71875 5.328125 -4.53125 2.265625 C-2.53125 0.265625 -2.53125 0.265625 0 0 Z " fill="#F3CE66" transform="translate(4.53125,18.734375)"/>
</svg>
